<?xml version="1.0" encoding="utf-8"?>
<!-- Generator: Adobe Illustrator 24.3.0, SVG Export Plug-In . SVG Version: 6.00 Build 0)  -->
<svg version="1.1" id="Layer_1" xmlns="http://www.w3.org/2000/svg" xmlns:xlink="http://www.w3.org/1999/xlink" x="0px"
	y="0px" viewBox="0 0 2000 2000" style="enable-background:new 0 0 2000 2000;" xml:space="preserve">
	<style type="text/css">
		.st0 {
			fill: url(#SVGID_1_);
		}
	</style>
	<image style="display:none;overflow:visible;" width="1448" height="1447" xlink:href="IMG_1756.PNG"
		transform="matrix(1.3725 0 0 1.3725 6.29 6.9772)">
	</image>
	<linearGradient id="SVGID_1_" gradientUnits="userSpaceOnUse" x1="5.5036" y1="1000" x2="2005.5037" y2="1000">
		<stop offset="0" style="stop-color:#BC477F" />
		<stop offset="0.142" style="stop-color:#B3427B" />
		<stop offset="0.3781" style="stop-color:#99346F" />
		<stop offset="0.6791" style="stop-color:#701E5C" />
		<stop offset="1" style="stop-color:#3C0344" />
	</linearGradient>
	<path class="st0" d="M2000,1000c0,552.3-447.7,1000-1000,1000c-176.2,0-341.8-45.6-485.6-125.6c-12.1-6.7-24-13.7-35.7-20.9
	c-19-11.7-37.6-23.9-55.8-36.8c-40.9-29-79.6-60.9-115.7-95.6l-88.4,88.4c11,16.3,17.3,36,17.3,57.2c0,56.8-46,102.8-102.8,102.8
	c-56.8,0-102.8-46-102.8-102.8c0-56.8,46-102.8,102.8-102.8c21.2,0,40.8,6.4,57.2,17.4l88.4-88.4c-34.7-36.1-66.7-74.7-95.6-115.7
	c-12.9-18.2-25.1-36.8-36.8-55.8c-7.2-11.8-14.1-23.7-20.9-35.7C45.6,1341.8,0,1176.2,0,1000C0,447.7,447.7,0,1000,0
	c176.2,0,341.8,45.6,485.6,125.6c12.1,6.7,24,13.7,35.7,20.9c19,11.7,37.6,23.9,55.8,36.8c40.9,29,79.6,61,115.7,95.6l90-90
	c19.6-46.9,5.1-78.9-43.7-147.8c98.2,69.5,121.5,69.5,219.8,0c-69.5,98.2-69.5,121.5,0,219.8c-68.9-48.8-100.9-63.3-147.8-43.7
	l-90,90c34.7,36.1,66.7,74.7,95.6,115.7c12.9,18.2,25.1,36.8,36.8,55.8c7.2,11.8,14.1,23.7,20.9,35.7
	C1954.4,658.2,2000,823.8,2000,1000z M1794.3,96.1c33.8,47.8,34.6,60,2.5,106.1l1.1,1c46-32.2,58.3-31.3,106.1,2.5
	c-34.7-49-34.7-60.6,0-109.6C1854.9,130.8,1843.3,130.8,1794.3,96.1z M133.3,1779.7c-48,0-87,39-87,87c0,48.1,39,87,87,87
	c48.1,0,87-39,87-87C220.3,1818.6,181.3,1779.7,133.3,1779.7z M1960,1000c0-165.1-41.7-320.5-115.1-456.2
	c-6.6-12.2-13.4-24.2-20.5-36c-11.5-19.2-23.6-37.9-36.4-56.2c-28.7-41.2-60.5-80-95.2-116.1l-84.9,84.9
	c34.6,36.3,66,75.6,93.7,117.6c12.4,18.7,24,38,34.9,57.7c6.7,12.2,13.2,24.7,19.3,37.3c54,110.9,84.2,235.4,84.2,367
	c0,463.9-376.1,840-840,840c-131.6,0-256.1-30.3-367-84.2c-12.6-6.1-25-12.6-37.3-19.3l29.5-29.5l89.5-89.5l30.3-30.3
	c13.3,5.8,26.8,11.1,40.6,16c67,23.8,139.2,36.8,214.4,36.8c353.5,0,640-286.5,640-640c0-75.2-13-147.4-36.8-214.4
	c-4.9-13.8-10.2-27.3-16-40.6c-9.2-21.2-19.5-41.8-30.9-61.7c-25.1-44-55.3-84.8-89.8-121.5c-9.1-9.7-18.6-19.2-28.3-28.3
	c-36.7-34.5-77.4-64.7-121.5-89.8l29.3-29.3c43.5,25.8,83.9,56.3,120.5,90.8c9.7,9.2,19.1,18.6,28.3,28.3
	c34.5,36.6,65,77,90.8,120.5c11.6,19.6,22.3,39.9,31.9,60.7c6,13,11.7,26.3,16.9,39.7c29.5,76.2,45.7,159,45.7,245.6
	c0,375.6-304.4,680-680,680c-86.6,0-169.4-16.2-245.6-45.7l-91.5,91.4c102.4,47.6,216.6,74.2,337,74.2c441.8,0,800-358.2,800-800
	c0-120.4-26.6-234.6-74.2-337c-5.9-12.8-12.2-25.4-18.8-37.8c-10.6-20-22-39.4-34.2-58.4c-27.3-42.3-58.5-81.9-93.1-118.2
	c-9.2-9.7-18.6-19.1-28.3-28.3l28.3-28.3l84.9-84.9c-36.1-34.7-74.9-66.5-116.1-95.2c-18.3-12.8-37-24.9-56.2-36.4
	c-11.8-7.1-23.9-13.9-36.1-20.5C1320.5,81.7,1165.1,40,1000,40C469.8,40,40,469.8,40,1000c0,165.1,41.7,320.5,115.1,456.2
	c6.6,12.2,13.4,24.2,20.5,36.1c11.5,19.2,23.6,37.9,36.4,56.2c28.7,41.2,60.5,80,95.2,116.1l84.9-84.9
	c-34.6-36.3-66-75.6-93.7-117.6c-12.4-18.7-24-38-34.9-57.7c-6.7-12.2-13.2-24.7-19.3-37.3c-54-110.9-84.2-235.4-84.2-367
	c0-463.9,376.1-840,840-840c131.6,0,256.1,30.3,367,84.2c12.6,6.1,25,12.6,37.3,19.3l-29.5,29.5l-89.5,89.5l-30.3,30.3
	c-13.3-5.8-26.8-11.1-40.6-16c-67-23.8-139.2-36.8-214.4-36.8c-353.5,0-640,286.5-640,640c0,75.2,13,147.4,36.8,214.4
	c4.9,13.8,10.2,27.3,16,40.6c9.2,21.2,19.5,41.8,30.9,61.7c25.1,44,55.3,84.8,89.8,121.5c9.1,9.7,18.6,19.2,28.3,28.3
	c36.7,34.5,77.5,64.7,121.5,89.8l-29.3,29.3c-43.5-25.8-83.9-56.3-120.5-90.8c-9.7-9.2-19.1-18.6-28.3-28.3
	c-34.5-36.6-65-77-90.8-120.5c-11.6-19.6-22.3-39.9-31.9-60.7c-6-13-11.6-26.3-16.9-39.7c-29.5-76.2-45.7-159-45.7-245.6
	c0-375.5,304.5-680,680-680c86.6,0,169.4,16.2,245.6,45.7l91.4-91.5c-102.4-47.6-216.6-74.2-337-74.2c-441.8,0-800,358.2-800,800
	c0,120.4,26.6,234.6,74.2,337c5.9,12.8,12.2,25.4,18.8,37.8c10.6,20,22,39.4,34.2,58.4c27.3,42.3,58.5,81.9,93.1,118.2
	c9.2,9.7,18.6,19.1,28.3,28.3l-28.3,28.3l-84.9,84.9c36.1,34.7,74.9,66.5,116.1,95.2c18.3,12.8,37,24.9,56.2,36.4
	c11.9,7.1,23.9,13.9,36.1,20.5C679.5,1918.3,834.9,1960,1000,1960C1530.2,1960,1960,1530.2,1960,1000z M214.7,1866.7
	c0,44.9-36.4,81.4-81.4,81.4c-44.9,0-81.4-36.4-81.4-81.4s36.4-81.4,81.4-81.4C178.2,1785.3,214.7,1821.8,214.7,1866.7z
	 M204.4,1866.7c0-39.3-31.8-71.1-71.1-71.1c-39.3,0-71.1,31.8-71.1,71.1c0,39.3,31.8,71.1,71.1,71.1
	C172.6,1937.8,204.4,1906,204.4,1866.7z" />
</svg>